<?xml version="1.0" encoding="utf-8"?>
<!-- Generator: Adobe Illustrator 27.3.1, SVG Export Plug-In . SVG Version: 6.00 Build 0)  -->
<svg version="1.1" id="Odesza_2" xmlns="http://www.w3.org/2000/svg" xmlns:xlink="http://www.w3.org/1999/xlink" x="0px" y="0px"
	 viewBox="0 0 41.9 46.1" style="enable-background:new 0 0 41.9 46.1;" xml:space="preserve">
<style type="text/css">
	.st0{fill:#B99B4E;}
	.st1{fill:#030401;}
</style>
<path class="st0" d="M35.3,14c-1.2-0.7-2.5-1.4-3.7-2.1c-1.3-0.7-2.5-1.5-3.7-2.2c-1.4-0.8-2.7-1.5-4.1-2.3
	c-0.9-0.5-1.7-1.1-2.6-1.6c-0.2-0.1-0.5-0.2-0.7-0.1c-0.4,0.1-0.8,0.4-1.2,0.6c-0.8,0.4-1.5,0.9-2.2,1.3c-1,0.6-2,1.2-3.1,1.8
	c-0.6,0.4-1.2,0.8-1.9,1.1c-0.9,0.5-1.9,1-2.9,1.5c-1,0.6-2,1.2-3,1.8c-0.5,0.3-0.8,0.7-0.8,1.3c0,2.6,0,5.3,0,7.9
	c0,2.7,0,5.4,0,8.1c0,0.2,0,0.6,0.2,0.7c0.4,0.4,1,0.7,1.5,0.9c1.6,0.9,3.3,1.8,4.9,2.7c1.1,0.6,2.1,1.3,3.2,1.9
	c1.6,0.9,3.2,1.8,4.8,2.7c0.3,0.1,0.7,0.3,1,0.2c1.1-0.5,2.1-1.2,3.2-1.8c1.9-1.1,3.8-2.2,5.7-3.3c1-0.6,2-1.2,3-1.7
	c0.6-0.4,1.3-0.7,2-1c0.6-0.2,1-0.8,1-1.3c0-5.5,0-10.9,0-16.4C35.9,14.4,35.7,14.2,35.3,14L35.3,14z M35.1,15.4
	c-0.2,1-0.5,1.9-0.7,2.9c-0.4,1.7-0.8,3.3-1.2,5c-0.3,1.2-0.6,2.5-0.9,3.7c-0.1,0.4-0.2,0.8-0.3,1.2c-0.1,0.2-0.2,0.3-0.3,0.6
	c-3.5-5.6-6.9-11-10.2-16.5c0.1,0,0.1-0.1,0.2-0.1c0.7,0.1,1.4,0.3,2,0.4c0.8,0.1,1.7,0.3,2.5,0.4c1.8,0.3,3.5,0.7,5.3,1
	c1.1,0.2,2.2,0.4,3.3,0.6C35.2,14.7,35.2,14.9,35.1,15.4L35.1,15.4z M20.9,6.9c0-0.4,0.1-0.5,0.5-0.3c1.1,0.6,2.1,1.3,3.2,1.9
	c0.6,0.4,1.2,0.7,1.8,1c1.4,0.8,2.8,1.6,4.2,2.4c0.8,0.5,1.7,0.9,2.5,1.4c0.1,0.1,0.2,0.2,0.4,0.4c-0.5-0.1-0.9-0.1-1.2-0.2
	c-1-0.2-2-0.4-3-0.6c-1.1-0.2-2.2-0.3-3.2-0.5c-1.1-0.2-2.2-0.5-3.4-0.7c-0.4-0.1-0.8-0.1-1.2-0.2c-0.2-0.1-0.5-0.3-0.5-0.5
	C20.9,9.7,20.9,8.3,20.9,6.9L20.9,6.9z M20.9,12.7c1.1,1.8,2.2,3.5,3.3,5.3c1.5,2.4,3,4.8,4.5,7.2c0.7,1.2,1.5,2.3,2.2,3.5
	c0.3,0.6,0.3,0.6-0.4,0.6c-5.4,0-10.8,0-16.2,0c-1.1,0-2.2,0-3.3,0c-0.2,0-0.4,0-0.9,0c0.3-0.5,0.5-0.8,0.7-1.1
	c0.8-1.3,1.6-2.7,2.4-4c0.7-1.1,1.4-2.3,2.1-3.4c0.8-1.3,1.6-2.7,2.4-4c0.8-1.4,1.7-2.7,2.5-4.1C20.6,12.4,20.7,12.2,20.9,12.7
	L20.9,12.7z M9.3,12.7c1.4-0.8,2.8-1.6,4.2-2.4c1.6-0.9,3.2-1.7,4.7-2.6c0.4-0.2,0.8-0.6,1.3-0.8c0.2-0.1,0.4-0.2,0.6-0.2
	c0.1,0.2,0.2,0.4,0.2,0.7c0,1.1,0,2.3,0,3.4c0,0.9-0.1,1-1,1.2c-0.8,0.1-1.7,0.3-2.5,0.5c-0.6,0.1-1.3,0.2-1.9,0.3
	c-1.3,0.2-2.6,0.5-3.9,0.8c-1,0.2-2,0.4-3,0.5L8,13.5C8.4,13.3,8.9,13,9.3,12.7L9.3,12.7z M6.7,14.6c1-0.2,2-0.4,3-0.6
	c2.2-0.4,4.5-0.8,6.7-1.2c1-0.2,2-0.4,2.9-0.6c0.1,0,0.2,0,0.5,0c-0.1,0.4-0.2,0.6-0.4,0.9c-0.9,1.6-1.9,3.1-2.9,4.7
	c-1.3,2-2.5,4.1-3.8,6.1c-0.6,1-1.2,1.9-1.8,2.9c-0.4,0.6-0.7,1.1-1,1.7c-0.1,0.1-0.2,0.2-0.2,0.2c-0.1-0.1-0.2-0.1-0.2-0.2
	c-0.2-0.6-0.3-1.1-0.5-1.7c-0.3-1-0.5-2.1-0.8-3.1c-0.3-1.2-0.6-2.5-0.9-3.7c-0.3-1.1-0.6-2.1-0.9-3.1c-0.2-0.6-0.3-1.1-0.4-1.7
	C6.1,14.7,6.5,14.6,6.7,14.6z M6,30.6c0-0.1,0-0.2,0-0.3c0-4,0-7.9,0-11.9c0-0.2,0-0.5,0.1-0.7c0.1,0,0.2,0,0.2,0
	c0.1,0.4,0.3,0.8,0.4,1.3c0.1,0.6,0.2,1.1,0.4,1.7c0.3,1.3,0.7,2.5,1,3.8c0.3,1.1,0.6,2.2,0.8,3.4c0,0.2,0.1,0.3,0.2,0.4
	c0.4,0.7,0.3,1.1-0.4,1.5c-0.7,0.4-1.5,0.8-2.2,1.2C6.2,31.2,6,31,6,30.6L6,30.6z M17.8,38.3C14,36.2,10.3,34,6.4,31.6
	c0.1,0,0.2-0.1,0.4-0.1c0.8-0.4,1.7-0.9,2.5-1.3c0.3-0.2,0.6-0.1,0.8,0.1c1.2,1.2,2.3,2.4,3.5,3.6c1,0.9,2,1.8,2.9,2.7
	c0.5,0.5,0.9,1,1.4,1.5C17.9,38.2,17.9,38.2,17.8,38.3z M20.1,39.4c-1.2-1.2-2.4-2.4-3.6-3.6c-1.2-1.2-2.4-2.4-3.6-3.6
	c-0.7-0.6-1.4-1.2-2-1.9c-0.1-0.1-0.1-0.1-0.1-0.2c0,0,0-0.1,0-0.1c0,0,0,0,0,0c0,0,0,0,0,0c0,0,0.1,0,0.1-0.1
	c0.1,0,0.1-0.1,0.2-0.1c0.5,0,1.1,0,1.6,0c5.8,0,11.6,0,17.3,0c0.3,0,0.5,0,0.8,0.1c0.1,0.1,0.1,0.2,0.2,0.3c-0.4,0.3-0.9,0.7-1.3,1
	c-1.5,1.4-3.1,2.8-4.6,4.2c-1.4,1.3-2.7,2.6-4,3.9C20.7,39.8,20.4,39.8,20.1,39.4L20.1,39.4z M23.4,38.4c0,0-0.1-0.1-0.1-0.1
	c0.2-0.2,0.4-0.5,0.6-0.7c1.2-1.2,2.4-2.3,3.6-3.5c1.3-1.2,2.6-2.4,3.9-3.7c0.2-0.2,0.5-0.4,0.9-0.2c0.8,0.5,1.6,0.9,2.4,1.4
	c0,0,0.1,0.1,0.1,0.2C31,34,27.2,36.2,23.4,38.4L23.4,38.4z M35.3,30.5c0,0.2-0.1,0.4-0.2,0.6c-0.2-0.1-0.4-0.1-0.6-0.2
	c-0.7-0.4-1.3-0.7-1.9-1.1c-0.3-0.2-0.5-0.3-0.3-0.8c0.4-1.2,0.7-2.5,1-3.7c0.1-0.4,0.1-0.9,0.2-1.3c0.4-1.7,0.9-3.4,1.3-5.1
	c0.1-0.3,0.1-0.6,0.2-0.9c0.1,0,0.2,0,0.3,0c0,0.2,0.1,0.4,0.1,0.6C35.3,22.5,35.3,26.5,35.3,30.5L35.3,30.5z"/>
<path class="st0" d="M5.5,23.1c0-2.6,0-5.3,0-7.9C5.5,17.8,5.5,20.5,5.5,23.1c0,2.7,0,5.4,0,8.1C5.5,28.5,5.5,25.8,5.5,23.1z"/>
<path class="st1" d="M10.8,30C10.8,30,10.9,30,10.8,30C10.9,30,10.8,30,10.8,30z"/>
<path class="st1" d="M10.8,30C10.8,30,10.7,30.1,10.8,30c0,0.1,0,0.1,0,0.1C10.7,30.1,10.7,30.1,10.8,30
	C10.7,30.1,10.7,30.1,10.8,30z"/>
</svg>
